<?xml version="1.0" encoding="UTF-8"?>
<!DOCTYPE svg PUBLIC "-//W3C//DTD SVG 1.1//EN" "http://www.w3.org/Graphics/SVG/1.1/DTD/svg11.dtd">
<svg xmlns="http://www.w3.org/2000/svg" version="1.1" width="957px" height="960px" style="shape-rendering:geometricPrecision; text-rendering:geometricPrecision; image-rendering:optimizeQuality; fill-rule:evenodd; clip-rule:evenodd" xmlns:xlink="http://www.w3.org/1999/xlink">
<g><path style="opacity:1" fill="#000000" d="M -0.5,-0.5 C 318.5,-0.5 637.5,-0.5 956.5,-0.5C 956.5,319.5 956.5,639.5 956.5,959.5C 637.5,959.5 318.5,959.5 -0.5,959.5C -0.5,639.5 -0.5,319.5 -0.5,-0.5 Z"/></g>
<g><path style="opacity:1" fill="#fdfdfd" d="M 309.5,225.5 C 308.076,227.515 307.41,229.848 307.5,232.5C 304.953,241.858 303.62,251.525 303.5,261.5C 304.48,274.04 306.314,286.373 309,298.5C 282.001,331.101 272.334,368.434 280,410.5C 285.245,470.401 316.412,509.567 373.5,528C 388.666,531.861 404,534.861 419.5,537C 408.28,548.776 401.613,562.776 399.5,579C 384.19,585.861 368.19,588.194 351.5,586C 338.222,582.611 327.055,575.778 318,565.5C 312.109,555.61 305.443,546.277 298,537.5C 285.541,525.46 270.708,519.96 253.5,521C 247.807,522.325 246.307,525.492 249,530.5C 254.263,535.765 260.096,540.265 266.5,544C 273.789,550.283 279.956,557.449 285,565.5C 290.007,575.868 295.007,586.202 300,596.5C 313.564,614.033 331.397,623.866 353.5,626C 367.282,626.919 380.949,626.086 394.5,623.5C 395.833,623.5 397.167,623.5 398.5,623.5C 398.5,644.167 398.5,664.833 398.5,685.5C 397.251,690.495 394.251,693.995 389.5,696C 385.167,696.667 380.833,696.667 376.5,696C 271.318,656.151 203.818,581.984 174,473.5C 148.4,352.007 180.233,248.507 269.5,163C 351.048,93.6162 444.382,70.2829 549.5,93C 629.984,114.18 693.151,159.347 739,228.5C 787.443,308.169 799.776,393.169 776,483.5C 743.958,588.207 676.458,659.04 573.5,696C 563.614,698.642 557.114,695.142 554,685.5C 553.667,649.833 553.333,614.167 553,578.5C 551.189,562.382 544.689,548.549 533.5,537C 560.822,533.738 586.822,526.071 611.5,514C 640.119,496.699 658.952,471.866 668,439.5C 674.074,414.177 676.074,388.51 674,362.5C 670.44,338.051 660.44,316.718 644,298.5C 646.797,286.043 648.63,273.376 649.5,260.5C 649.445,244.497 646.278,229.164 640,214.5C 628.211,213.119 616.711,214.619 605.5,219C 587.085,226.371 569.752,235.538 553.5,246.5C 501.985,233.176 450.485,233.176 399,246.5C 378.977,232.406 357.144,221.906 333.5,215C 326.882,213.622 320.215,213.289 313.5,214C 311.477,217.59 310.144,221.424 309.5,225.5 Z"/></g>
<g><path style="opacity:1" fill="#464646" d="M 309.5,225.5 C 309.59,228.152 308.924,230.485 307.5,232.5C 307.41,229.848 308.076,227.515 309.5,225.5 Z"/></g>
<g><path style="opacity:1" fill="#7b7b7b" d="M 394.5,623.5 C 395.919,622.549 397.585,622.216 399.5,622.5C 399.831,643.673 399.497,664.673 398.5,685.5C 398.5,664.833 398.5,644.167 398.5,623.5C 397.167,623.5 395.833,623.5 394.5,623.5 Z"/></g>
<g><path style="opacity:1" fill="#fafafa" d="M 302.5,761.5 C 314.265,761.065 325.932,761.898 337.5,764C 343.452,764.586 345.618,767.752 344,773.5C 342.821,777.698 341.654,781.865 340.5,786C 333.804,784.559 326.97,783.725 320,783.5C 303.451,783.04 293.785,791.04 291,807.5C 289.521,820.431 291.521,832.765 297,844.5C 299.803,848.646 303.636,851.146 308.5,852C 314.167,852.667 319.833,852.667 325.5,852C 326.48,844.921 326.813,837.755 326.5,830.5C 321.238,830.805 316.072,830.471 311,829.5C 310.19,822.918 310.357,816.418 311.5,810C 324.076,809.179 336.576,809.345 349,810.5C 349.667,829.167 349.667,847.833 349,866.5C 334.675,873.738 319.509,876.238 303.5,874C 284.694,869.86 273.194,858.36 269,839.5C 267.525,827.535 267.192,815.535 268,803.5C 269.947,781.407 281.447,767.407 302.5,761.5 Z"/></g>
<g><path style="opacity:1" fill="#f8f8f8" d="M 451.5,765.5 C 459.42,765.185 467.253,765.518 475,766.5C 475.5,779.496 475.667,792.496 475.5,805.5C 485.5,805.5 495.5,805.5 505.5,805.5C 505.5,792.167 505.5,778.833 505.5,765.5C 513.167,765.5 520.833,765.5 528.5,765.5C 528.5,801.167 528.5,836.833 528.5,872.5C 520.833,872.5 513.167,872.5 505.5,872.5C 505.5,857.167 505.5,841.833 505.5,826.5C 495.5,826.5 485.5,826.5 475.5,826.5C 475.667,841.504 475.5,856.504 475,871.5C 467.333,872.833 459.667,872.833 452,871.5C 451.5,836.168 451.333,800.835 451.5,765.5 Z"/></g>
<g><path style="opacity:1" fill="#f9f9f9" d="M 616.5,765.5 C 624.087,765.186 631.587,765.519 639,766.5C 639.333,778.167 639.667,789.833 640,801.5C 642.655,799.947 645.488,798.78 648.5,798C 668.299,794.142 680.465,801.975 685,821.5C 687.307,837.284 684.974,852.284 678,866.5C 674.068,870.716 669.234,873.216 663.5,874C 652.638,876.215 642.805,874.049 634,867.5C 633.727,869.101 633.227,870.601 632.5,872C 626.916,872.806 621.416,872.639 616,871.5C 615.174,836.095 615.341,800.762 616.5,765.5 Z"/></g>
<g><path style="opacity:1" fill="#f5f5f5" d="M 368.5,767.5 C 382.718,768.198 387.552,775.198 383,788.5C 377.972,793.579 372.139,794.745 365.5,792C 356.787,782.54 357.787,774.373 368.5,767.5 Z"/></g>
<g><path style="opacity:1" fill="#fbfbfb" d="M 425.5,779.5 C 425.5,786.167 425.5,792.833 425.5,799.5C 431.093,799.193 436.593,799.527 442,800.5C 442.819,806.681 442.653,812.681 441.5,818.5C 436.167,818.5 430.833,818.5 425.5,818.5C 425.172,829.014 425.506,839.347 426.5,849.5C 426.452,852.292 427.785,854.125 430.5,855C 434.486,855.499 438.486,855.666 442.5,855.5C 442.829,861.206 442.495,866.872 441.5,872.5C 431.593,875.65 421.926,875.15 412.5,871C 407.008,866.849 404.008,861.349 403.5,854.5C 403.5,842.5 403.5,830.5 403.5,818.5C 399.5,818.5 395.5,818.5 391.5,818.5C 390.35,813.684 390.184,808.684 391,803.5C 394.548,801.488 398.381,800.488 402.5,800.5C 403.491,793.687 403.825,786.687 403.5,779.5C 410.833,779.5 418.167,779.5 425.5,779.5 Z"/></g>
<g><path style="opacity:1" fill="#8e8e8e" d="M 425.5,779.5 C 418.167,779.5 410.833,779.5 403.5,779.5C 403.825,786.687 403.491,793.687 402.5,800.5C 402.5,793.167 402.5,785.833 402.5,778.5C 410.352,778.175 418.018,778.508 425.5,779.5 Z"/></g>
<g><path style="opacity:1" fill="#fcfcfc" d="M 361.5,799.5 C 368.833,799.5 376.167,799.5 383.5,799.5C 383.5,823.833 383.5,848.167 383.5,872.5C 375.913,872.814 368.413,872.481 361,871.5C 360.178,847.428 360.344,823.428 361.5,799.5 Z"/></g>
<g><path style="opacity:1" fill="#fbfbfb" d="M 539.5,855.5 C 539.5,837.167 539.5,818.833 539.5,800.5C 546.833,800.5 554.167,800.5 561.5,800.5C 561.333,817.17 561.5,833.837 562,850.5C 563.56,854.722 566.56,856.389 571,855.5C 574.874,855.813 578.374,854.813 581.5,852.5C 582.333,835.176 582.833,817.843 583,800.5C 590.413,799.519 597.913,799.186 605.5,799.5C 605.5,823.833 605.5,848.167 605.5,872.5C 600.489,872.666 595.489,872.499 590.5,872C 589.663,870.989 589.33,869.822 589.5,868.5C 584.228,870.424 578.895,872.258 573.5,874C 566.101,874.848 558.767,874.515 551.5,873C 543.905,869.646 539.905,863.813 539.5,855.5 Z"/></g>
<g><path style="opacity:1" fill="#d7d7d7" d="M 561.5,800.5 C 554.167,800.5 546.833,800.5 539.5,800.5C 539.5,818.833 539.5,837.167 539.5,855.5C 538.503,837.007 538.17,818.341 538.5,799.5C 546.352,799.175 554.018,799.508 561.5,800.5 Z"/></g>
<g><path style="opacity:1" fill="#070707" d="M 644.5,816.5 C 658.184,814.977 664.184,821.144 662.5,835C 664.208,853.976 656.375,859.809 639,852.5C 638.333,841.5 638.333,830.5 639,819.5C 640.876,818.391 642.709,817.391 644.5,816.5 Z"/></g>
<g><path style="opacity:1" fill="#535353" d="M 441.5,818.5 C 436.695,819.487 431.695,819.821 426.5,819.5C 426.5,829.5 426.5,839.5 426.5,849.5C 425.506,839.347 425.172,829.014 425.5,818.5C 430.833,818.5 436.167,818.5 441.5,818.5 Z"/></g>
<g><path style="opacity:1" fill="#767676" d="M 391.5,818.5 C 395.5,818.5 399.5,818.5 403.5,818.5C 403.5,830.5 403.5,842.5 403.5,854.5C 402.505,843.012 402.172,831.345 402.5,819.5C 398.629,819.815 394.962,819.482 391.5,818.5 Z"/></g>
</svg>
